# xmcd
#
# Track frame offsets:
#	151
#	20572
#	41402
#	71004
#	79789
#	101122
#	125275
#	133036
#	153090
#	182353
#	212924
#	241840
#
# Disc length: 3954 seconds
#
# Revision: 1
# Processed by: cddbd v1.4PL0 Copyright (c) Steve Scherf et al.
# Submitted via: CDmax 1.9
#
DISCID=990f700c
DTITLE=Various Artist - Springtime Blues - Disc 2
DYEAR=1998
DGENRE=Blues
TTITLE0=Donnelly, Albie - Spaceman Boogie
TTITLE1=Donnelly, Albie - Save Your Love For Me
TTITLE2=Donnelly, Albie - Telephone Me Again
TTITLE3=Second Revisited - Mabel's
TTITLE4=Juke - Everybody Wants Somebody
TTITLE5=Juke - Pitchin' The Boogie
TTITLE6=Hammond Band - Opener In G
TTITLE7=Hammond Band - Gettin' Drunk On You
TTITLE8=Hammond Band - Good Times Gone
TTITLE9=Hammond Band - Tiebreak
TTITLE10=Session Band I - I Can't Do It
TTITLE11=Session Band II - Every Day I Have The Blues
EXTD=
EXTT0=
EXTT1=
EXTT2=
EXTT3=
EXTT4=
EXTT5=
EXTT6=
EXTT7=
EXTT8=
EXTT9=
EXTT10=
EXTT11=
PLAYORDER=
